<svg xmlns="http://www.w3.org/2000/svg" width="1200" height="420" viewBox="0 0 1200 420" role="img" aria-labelledby="title desc">
  <title id="title">mentor</title>
  <desc id="desc">ORCHESTRATION</desc>
  <defs>
    <radialGradient id="bg" cx="0.32" cy="0.42" r="0.95" gradientUnits="userSpaceOnUse">
      <stop offset="0" stop-color="#15101F"/>
      <stop offset="0.55" stop-color="#0C0F16"/>
      <stop offset="1" stop-color="#0B0E11"/>
    </radialGradient>
    <linearGradient id="acc" x1="0" y1="0" x2="1" y2="0">
      <stop offset="0" stop-color="#7C5CFF"/>
      <stop offset="1" stop-color="#9B7BFF"/>
    </linearGradient>
    <linearGradient id="panel" x1="0" y1="0" x2="0" y2="1">
      <stop offset="0" stop-color="#161B26"/>
      <stop offset="1" stop-color="#10131B"/>
    </linearGradient>
  </defs>
  <rect width="1200" height="420" fill="url(#bg)"/>
  <rect x="598" y="56" width="1" height="312" fill="#222838"/>
  <text x="64" y="74" font-family="-apple-system,BlinkMacSystemFont,Segoe UI,sans-serif" font-size="12" letter-spacing="3" fill="#7C5CFF">ORCHESTRATION</text>
  <text x="62" y="128" font-family="-apple-system,BlinkMacSystemFont,Segoe UI,sans-serif" font-size="50" font-weight="700" fill="#F4F6FB">mentor</text>
  <rect x="64" y="146" width="52" height="4" rx="2" fill="url(#acc)"/>
<text x="64" y="176" font-family="-apple-system,BlinkMacSystemFont,Segoe UI,sans-serif" font-size="17" fill="#C7CEDB">Multi-skill orchestration</text>
<text x="64" y="204" font-family="-apple-system,BlinkMacSystemFont,Segoe UI,sans-serif" font-size="17" fill="#C7CEDB">+ self-improvement engine</text>
<text x="64" y="232" font-family="-apple-system,BlinkMacSystemFont,Segoe UI,sans-serif" font-size="17" fill="#C7CEDB">decomposes &amp; supervises</text>
<circle cx="700" cy="210" r="34" fill="#0E111A" stroke="url(#acc)" stroke-width="2"/><text x="700" y="216" text-anchor="middle" font-family="-apple-system,BlinkMacSystemFont,Segoe UI,sans-serif" font-size="14" fill="#F4F6FB">goal</text><circle cx="1040" cy="90" r="30" fill="#0E111A" stroke="#2A3350"/>
<text x="1040" y="95" text-anchor="middle" font-family="-apple-system,BlinkMacSystemFont,Segoe UI,sans-serif" font-size="12" fill="#C7CEDB">graph</text>
<path d="M734 210 C 880 210, 920 90, 1010 90" fill="none" stroke="#7C5CFF" stroke-width="2" opacity="0.6"/>
<circle cx="1040" cy="210" r="30" fill="#0E111A" stroke="#2A3350"/>
<text x="1040" y="215" text-anchor="middle" font-family="-apple-system,BlinkMacSystemFont,Segoe UI,sans-serif" font-size="12" fill="#C7CEDB">supervise</text>
<path d="M734 210 C 880 210, 920 210, 1010 210" fill="none" stroke="#7C5CFF" stroke-width="2" opacity="0.6"/>
<circle cx="1040" cy="330" r="30" fill="#0E111A" stroke="#2A3350"/>
<text x="1040" y="335" text-anchor="middle" font-family="-apple-system,BlinkMacSystemFont,Segoe UI,sans-serif" font-size="12" fill="#C7CEDB">analyze</text>
<path d="M734 210 C 880 210, 920 330, 1010 330" fill="none" stroke="#7C5CFF" stroke-width="2" opacity="0.6"/>

</svg>